<svg height="800px" width="800px" version="1.1" id="Layer_1" xmlns="http://www.w3.org/2000/svg" xmlns:xlink="http://www.w3.org/1999/xlink" 
	 viewBox="0 0 512 512" xml:space="preserve">
<path style="fill:#E6C8A0;" d="M486.881,409.921H25.119c-9.446,0-17.102-7.656-17.102-17.102l0,0
	c0-9.446,7.656-17.102,17.102-17.102h461.762c9.446,0,17.102,7.656,17.102,17.102l0,0
	C503.983,402.264,496.327,409.921,486.881,409.921z"/>
<path style="fill:#7DC86E;" d="M435.574,341.511H76.426c-18.891,0-34.205,15.314-34.205,34.205h427.557
	C469.779,356.826,454.465,341.511,435.574,341.511z"/>
<g>
	<path style="fill:#8CE16E;" d="M224.849,230.347h-3.932c-4.033,0-6.417-4.407-4.268-7.82c3.251-5.167,5.147-11.257,5.147-17.833
		c0-13.982-8.392-25.995-20.412-31.296c-3.397-1.499-5.893-4.776-5.43-8.459c0.407-3.249,0.179-6.696-0.936-10.282
		c-3.49-11.223-14.568-18.371-26.32-18.371h-46.951c-10.718,0-20.991,5.676-25.71,15.298c-1.01,2.06-1.643,4.537-2.034,7.012
		c-1.031,6.537-5.688,11.642-11.924,13.857c-11.269,4.002-19.819,13.745-22.133,25.711c-0.726,3.753-3.879,6.53-7.701,6.53h-0.021
		c-12.701,0-24.535,8.546-26.705,21.059C22.71,241.945,35.099,256,50.772,256h66.644c5.803,0,10.856,3.246,14.191,7.995
		c3.866,5.507,10.264,9.107,17.504,9.107h76.96c12.534,0,22.548-10.787,21.267-23.583
		C246.223,238.392,236.032,230.347,224.849,230.347z"/>
	<path style="fill:#8CE16E;" d="M503.749,184.719c-1.368-8.409-9.264-14.23-17.783-14.23h-33.366c-7.047,0-11.03-8.016-6.791-13.646
		c5.274-7.001,7.921-16.095,6.474-25.814c-2.526-16.969-18.126-28.95-35.283-28.95h-84.042c-16.46,0-30.204,11.625-33.468,27.112
		c-0.857,4.066-4.235,7.092-8.39,7.091h-7.979c-17.156,0-32.756,11.981-35.282,28.951c-1.446,9.718,1.2,18.811,6.474,25.814
		c4.24,5.63,0.257,13.644-6.791,13.644l-0.126,0.001c-6.237,0.043-12.39,3.181-15.087,8.804
		c-6.146,12.807,3.026,25.399,15.138,25.399h85.511c9.446,0,17.102-7.656,17.102-17.102l0,0c0-9.446,7.656-17.102,17.102-17.102
		h8.551H486.88C497.267,204.693,505.492,195.433,503.749,184.719z"/>
</g>
<g>
	<path style="fill:#7DC86E;" d="M153.386,251.724L153.386,251.724c0-11.807-9.571-21.378-21.378-21.378h-12.827
		c-15.673,0-28.063-14.055-25.254-30.248c2.17-12.514,14.005-21.059,26.705-21.059h0.021c3.822,0,6.976-2.777,7.701-6.53
		c2.313-11.966,10.863-21.709,22.133-25.711c5.106-1.813,9.028-5.626,10.893-10.514h-39.636c-10.717,0-20.991,5.676-25.71,15.298
		c-1.01,2.06-1.644,4.539-2.034,7.013c-1.031,6.537-5.688,11.642-11.924,13.857c-11.268,4.002-19.819,13.745-22.133,25.711
		c-0.726,3.753-3.879,6.53-7.701,6.53h-0.021c-12.7,0-24.533,8.545-26.705,21.057c-2.81,16.194,9.58,30.25,25.254,30.25h66.644
		c5.803,0,10.857,3.246,14.191,7.996c3.866,5.506,10.262,9.106,17.503,9.106h25.653C162.957,273.102,153.386,263.53,153.386,251.724
		z"/>
	<path style="fill:#7DC86E;" d="M309.272,179.293c2.699-5.623,8.85-8.762,15.087-8.804h0.126c7.047,0,11.031-8.016,6.791-13.644
		c-5.274-7.002-7.921-16.095-6.474-25.814c2.526-16.969,18.126-28.95,35.282-28.95H332.96c-16.459,0-30.203,11.625-33.469,27.112
		c-0.857,4.066-4.234,7.092-8.39,7.092h-7.979c-17.156,0-32.756,11.981-35.282,28.95c-1.447,9.718,1.2,18.811,6.474,25.814
		c4.24,5.63,0.257,13.644-6.791,13.644h-0.126c-6.237,0.044-12.39,3.182-15.087,8.804c-6.146,12.807,3.026,25.4,15.138,25.4h85.511
		c9.445,0,17.102-7.658,17.102-17.102c0-9.446,7.658-17.102,17.102-17.102h-42.756C312.296,204.693,303.125,192.1,309.272,179.293z"
		/>
</g>
<path d="M486.881,367.699h-9.858c-3.757-19.459-20.909-34.205-41.448-34.205H306.772v-0.534c0-9.725,7.912-17.637,17.637-17.637
	h34.205c18.566,0,33.67-15.105,33.67-33.67v-34.739h17.637c18.566,0,33.67-15.105,33.67-33.67v-0.534h43.29
	c7.38,0,14.356-3.227,19.141-8.852c4.782-5.622,6.838-13.068,5.641-20.427c-1.944-11.949-12.991-20.96-25.696-20.96h-33.366
	c-0.156,0-0.319,0-0.45-0.264c-0.137-0.275-0.031-0.416,0.063-0.541c6.351-8.433,9.293-18.911,8.283-29.506
	c-2.038-21.363-21.143-38.099-43.494-38.099H332.96c-20.541,0-37.703,14.743-41.458,34.205h-8.38
	c-22.351,0-41.455,16.735-43.493,38.099c-1.011,10.595,1.932,21.074,8.283,29.507c0.094,0.124,0.2,0.265,0.063,0.54
	c-0.131,0.264-0.294,0.264-0.45,0.264h-7.712c-3.675,0-7.201,0.774-10.42,2.135c-2.082-14.73-11.858-27.324-25.464-33.046
	c0.153-1.275,0.23-2.553,0.23-3.828c0-18.566-15.105-33.67-33.67-33.67h-51.307c-18.566,0-33.67,15.105-33.67,33.67
	c0,0.431,0.009,0.863,0.027,1.292c-16.877,3.246-30.212,16.572-33.468,33.447h-1.298c-18.566,0-33.67,15.105-33.67,33.67
	s15.105,33.67,33.67,33.67h17.637v17.637c0,18.566,15.105,33.67,33.67,33.67h68.409c9.725,0,17.637,7.912,17.637,17.637v0.534
	H76.426c-20.54,0-37.691,14.745-41.448,34.205h-9.858C11.268,367.699,0,378.968,0,392.818c0,13.851,11.268,25.119,25.119,25.119
	h461.762c13.851,0,25.119-11.268,25.119-25.119C512,378.968,500.732,367.699,486.881,367.699z M306.772,246.914h25.275
	c12.704,0,23.75-9.01,25.694-20.958c0.736-4.531,0.242-9.095-1.365-13.247h19.874v52.376h-51.841
	c-9.725,0-17.637-7.912-17.637-17.637V246.914z M427.557,213.244c0,9.725-7.912,17.637-17.637,17.637h-17.637V212.71h35.273V213.244
	z M239.812,212.71h7.712c6.316,0,11.986-3.503,14.799-9.142c2.815-5.646,2.201-12.29-1.604-17.342
	c-3.937-5.226-5.758-11.738-5.129-18.337c1.262-13.228,13.356-23.588,27.534-23.588h15.633c4.427,0,8.017-3.589,8.017-8.017
	c0-14.44,11.748-26.188,26.188-26.188h84.042c14.178,0,26.272,10.361,27.534,23.588c0.63,6.598-1.192,13.11-5.129,18.337
	c-3.805,5.052-4.42,11.697-1.604,17.343c2.812,5.638,8.483,9.141,14.798,9.141h33.366c4.851,0,9.186,3.295,9.87,7.502
	c0.447,2.749-0.273,5.4-2.029,7.464c-1.733,2.037-4.256,3.206-6.926,3.206H332.966c-4.427,0-8.017,3.588-8.017,8.016
	c0,4.427,3.587,8.017,8.015,8.018c2.669,0.001,5.194,1.169,6.925,3.207c1.755,2.064,2.474,4.715,2.027,7.464
	c-0.684,4.206-5.018,7.499-9.868,7.499h-85.272c-4.428-4.398-10.246-7.394-16.728-8.274v-2.916
	C230.988,215.736,235.163,212.71,239.812,212.71z M33.136,230.347c0-9.725,7.912-17.637,17.637-17.637h8.551
	c4.427,0,8.017-3.589,8.017-8.017c0-14.44,11.748-26.188,26.188-26.188h1.571c2.605,0,5.047-1.266,6.549-3.394
	c1.502-2.128,1.876-4.854,1.004-7.308c-0.745-2.097-1.107-4.016-1.107-5.866c0-9.725,7.912-17.637,17.637-17.637h51.307
	c9.725,0,17.637,7.912,17.637,17.637c0,2.077-0.418,4.209-1.242,6.339c-0.854,2.205-0.691,4.675,0.447,6.749
	c1.137,2.074,3.132,3.54,5.451,4.005c12.166,2.443,20.997,13.237,20.997,25.663c0,7.56-3.233,14.516-9.106,19.585
	c-2.535,2.189-3.443,5.723-2.275,8.863c1.167,3.139,4.164,5.222,7.513,5.222h16.16c7.368,0,13.361,5.993,13.361,13.361
	c0,7.368-5.993,13.361-13.361,13.361h-76.96c-6.328,0-11.834-4.493-13.091-10.68c-0.759-3.737-4.044-6.422-7.856-6.422H50.772
	C41.048,247.983,33.136,240.071,33.136,230.347z M84.443,281.653v-17.637h37.968c4.717,10.207,15.079,17.102,26.7,17.102h4.81
	v18.171h-51.841C92.355,299.29,84.443,291.378,84.443,281.653z M170.489,299.29h-0.534v-18.171h56.117
	c16.209,0,29.395-13.186,29.395-29.395c0-1.639-0.141-3.244-0.4-4.81h35.673v0.534c0,18.566,15.105,33.67,33.67,33.67h51.841v0.534
	c0,9.725-7.912,17.637-17.637,17.637h-34.205c-18.566,0-33.67,15.105-33.67,33.67v0.534h-86.58v-0.534
	C204.159,314.395,189.054,299.29,170.489,299.29z M76.426,349.528h359.148c11.645,0,21.533,7.642,24.928,18.171H51.498
	C54.892,357.17,64.781,349.528,76.426,349.528z M486.881,401.904H25.119c-5.01,0-9.086-4.076-9.086-9.086s4.076-9.086,9.086-9.086
	h461.762c5.01,0,9.086,4.076,9.086,9.086S491.891,401.904,486.881,401.904z"/>
</svg>